<svg xmlns="http://www.w3.org/2000/svg" width="24" height="24" viewBox="0 0 24 24">
  <metadata><?xpacket begin="﻿" id="W5M0MpCehiHzreSzNTczkc9d"?>
<x:xmpmeta xmlns:x="adobe:ns:meta/" x:xmptk="Adobe XMP Core 5.6-c142 79.160924, 2017/07/13-01:06:39        ">
   <rdf:RDF xmlns:rdf="http://www.w3.org/1999/02/22-rdf-syntax-ns#">
      <rdf:Description rdf:about=""/>
   </rdf:RDF>
</x:xmpmeta>
                                                                                                    
                                                                                                    
                                                                                                    
                                                                                                    
                                                                                                    
                                                                                                    
                                                                                                    
                                                                                                    
                                                                                                    
                                                                                                    
                                                                                                    
                                                                                                    
                                                                                                    
                                                                                                    
                                                                                                    
                                                                                                    
                                                                                                    
                                                                                                    
                                                                                                    
                                                                                                    
                           
<?xpacket end="w"?></metadata>
<defs>
    <style>
      .cls-1 {
        fill: #fff;
        fill-rule: evenodd;
      }
    </style>
  </defs>
  <path id="csbm" class="cls-1" d="M1185.05,185.788a0.47,0.47,0,0,0-.67,0l-6.33,6.381-3.48-3.5a0.47,0.47,0,0,0-.67,0,0.494,0.494,0,0,0,0,.679l3.81,3.841a0.481,0.481,0,0,0,.34.14,0.458,0.458,0,0,0,.33-0.14l6.67-6.721A0.476,0.476,0,0,0,1185.05,185.788Zm3.61-4.922-9.52-2.88a0.494,0.494,0,0,0-.28,0l-9.52,2.88a0.482,0.482,0,0,0-.34.46v10.562c0,4.246,6.42,8.022,9.86,9.1a0.477,0.477,0,0,0,.28,0c3.44-1.079,9.86-4.855,9.86-9.1V181.326A0.483,0.483,0,0,0,1188.66,180.866Zm-0.61,11.022c0,3.371-5.3,6.916-9.05,8.138-3.75-1.222-9.05-4.767-9.05-8.138V181.683l9.05-2.736,9.05,2.736v10.205Z" transform="translate(-1167 -177.5)"/>
</svg>
