<svg xmlns="http://www.w3.org/2000/svg" width="24" height="24" viewBox="0 0 24 24">
  <metadata><?xpacket begin="﻿" id="W5M0MpCehiHzreSzNTczkc9d"?>
<x:xmpmeta xmlns:x="adobe:ns:meta/" x:xmptk="Adobe XMP Core 5.6-c142 79.160924, 2017/07/13-01:06:39        ">
   <rdf:RDF xmlns:rdf="http://www.w3.org/1999/02/22-rdf-syntax-ns#">
      <rdf:Description rdf:about=""/>
   </rdf:RDF>
</x:xmpmeta>
                                                                                                    
                                                                                                    
                                                                                                    
                                                                                                    
                                                                                                    
                                                                                                    
                                                                                                    
                                                                                                    
                                                                                                    
                                                                                                    
                                                                                                    
                                                                                                    
                                                                                                    
                                                                                                    
                                                                                                    
                                                                                                    
                                                                                                    
                                                                                                    
                                                                                                    
                                                                                                    
                           
<?xpacket end="w"?></metadata>
<defs>
    <style>
      .cls-1 {
        fill: #fff;
        fill-rule: evenodd;
      }
    </style>
  </defs>
  <path id="FPTTH" class="cls-1" d="M972.441,188h-9.9a0.4,0.4,0,0,0,0,.8h9.9A0.4,0.4,0,0,0,972.441,188Zm-9.9-2.4H966.5a0.4,0.4,0,0,0,0-.8h-3.961A0.4,0.4,0,0,0,962.539,185.6Zm9.9,5.6h-9.9a0.4,0.4,0,0,0,0,.8h9.9A0.4,0.4,0,0,0,972.441,191.2Zm0,3.2h-9.9a0.4,0.4,0,0,0,0,.8h9.9A0.4,0.4,0,0,0,972.441,194.4Zm0,3.2h-9.9a0.4,0.4,0,0,0,0,.8h9.9A0.4,0.4,0,0,0,972.441,197.6Zm1.585-13.766V178H956.994v22h1.98v2h17.032V185.834Zm-3.565-2.468,3.565,3.6,0.628,0.634h-4.193v-4.234ZM957.786,199.2V178.8h15.448v4.234l-3-3.034H958.974v19.2h-1.188Zm1.98,2V180.8h9.9v5.6h5.545v14.8H959.766Z" transform="translate(-954.5 -178)"/>
</svg>
