<svg xmlns="http://www.w3.org/2000/svg" width="36" height="36" viewBox="0 0 36 36">
  <metadata><?xpacket begin="﻿" id="W5M0MpCehiHzreSzNTczkc9d"?>
<x:xmpmeta xmlns:x="adobe:ns:meta/" x:xmptk="Adobe XMP Core 5.6-c142 79.160924, 2017/07/13-01:06:39        ">
   <rdf:RDF xmlns:rdf="http://www.w3.org/1999/02/22-rdf-syntax-ns#">
      <rdf:Description rdf:about=""/>
   </rdf:RDF>
</x:xmpmeta>
                                                                                                    
                                                                                                    
                                                                                                    
                                                                                                    
                                                                                                    
                                                                                                    
                                                                                                    
                                                                                                    
                                                                                                    
                                                                                                    
                                                                                                    
                                                                                                    
                                                                                                    
                                                                                                    
                                                                                                    
                                                                                                    
                                                                                                    
                                                                                                    
                                                                                                    
                                                                                                    
                           
<?xpacket end="w"?></metadata>
<defs>
    <style>
      .cls-1 {
        fill: #fff;
        fill-rule: evenodd;
      }
    </style>
  </defs>
  <path id="gift" class="cls-1" d="M1017.42,5537.66h-1.75a2.594,2.594,0,0,0,.43-1.21,3.1,3.1,0,0,0-5.17-2.64l-2.21,2a2.35,2.35,0,0,0-3.47.01l-2.2-2.01a3.108,3.108,0,0,0-5.178,2.64,2.739,2.739,0,0,0,.425,1.21h-1.741a1.565,1.565,0,0,0-1.565,1.57v2.35a0.781,0.781,0,0,0,.782.78H1018.2a0.783,0.783,0,0,0,.79-0.78v-2.35A1.566,1.566,0,0,0,1017.42,5537.66Zm-12.78-.26v0.26h-3.68a1.546,1.546,0,0,1-1.5-1.92,1.549,1.549,0,0,1,2.535-.77l2.64,2.41v0.02Zm9.91-1.16a1.591,1.591,0,0,1-1.61,1.42h-3.6v-0.29c0.59-.54,1.9-1.72,2.6-2.36a1.535,1.535,0,0,1,1.48-.38A1.517,1.517,0,0,1,1014.55,5536.24Zm-17.994,7.69v11.5a1.565,1.565,0,0,0,1.565,1.57h7.3v-13.07h-8.864Zm11.994,0V5557h7.31a1.564,1.564,0,0,0,1.56-1.57v-11.5h-8.87Z" transform="translate(-989 -5527)"/>
</svg>
