<svg xmlns="http://www.w3.org/2000/svg" width="36" height="36" viewBox="0 0 36 36">
  <metadata><?xpacket begin="﻿" id="W5M0MpCehiHzreSzNTczkc9d"?>
<x:xmpmeta xmlns:x="adobe:ns:meta/" x:xmptk="Adobe XMP Core 5.6-c142 79.160924, 2017/07/13-01:06:39        ">
   <rdf:RDF xmlns:rdf="http://www.w3.org/1999/02/22-rdf-syntax-ns#">
      <rdf:Description rdf:about=""/>
   </rdf:RDF>
</x:xmpmeta>
                                                                                                    
                                                                                                    
                                                                                                    
                                                                                                    
                                                                                                    
                                                                                                    
                                                                                                    
                                                                                                    
                                                                                                    
                                                                                                    
                                                                                                    
                                                                                                    
                                                                                                    
                                                                                                    
                                                                                                    
                                                                                                    
                                                                                                    
                                                                                                    
                                                                                                    
                                                                                                    
                           
<?xpacket end="w"?></metadata>
<defs>
    <style>
      .cls-1 {
        fill: #fff;
        fill-rule: evenodd;
      }
    </style>
  </defs>
  <path id="hdsd" class="cls-1" d="M991.365,5403.24a9.028,9.028,0,0,0,.784,1.89l-0.946,1.22a1.009,1.009,0,0,0,.073,1.32l1.63,1.65a0.966,0.966,0,0,0,1.3.08l1.186-.96a8.6,8.6,0,0,0,1.935.84l0.177,1.55a0.986,0.986,0,0,0,.97.88h2.308a0.991,0.991,0,0,0,.97-0.88l0.17-1.5a8.68,8.68,0,0,0,2.07-.85l1.15,0.92a0.968,0.968,0,0,0,1.3-.07l1.63-1.66a1,1,0,0,0,.07-1.32l-0.89-1.15a8.585,8.585,0,0,0,.85-2.08l1.38-.16a0.987,0.987,0,0,0,.86-0.99v-2.34a0.994,0.994,0,0,0-.86-0.99l-1.36-.16a8.7,8.7,0,0,0-.82-2.05l0.84-1.07a1.016,1.016,0,0,0-.08-1.32l-1.62-1.66a0.958,0.958,0,0,0-1.3-.07l-1.03.82a8.457,8.457,0,0,0-2.12-.9l-0.15-1.35a0.991,0.991,0,0,0-.97-0.88h-2.306a0.985,0.985,0,0,0-.969.88l-0.155,1.35a8.632,8.632,0,0,0-2.174.93l-1.062-.85a0.965,0.965,0,0,0-1.3.07l-1.63,1.66a1,1,0,0,0-.073,1.32l0.888,1.14a8.7,8.7,0,0,0-.8,2.08l-1.422.16a0.988,0.988,0,0,0-.865.99v2.34a0.988,0.988,0,0,0,.865.99Zm8.354-6.35a3.881,3.881,0,1,1-3.812,3.88A3.85,3.85,0,0,1,999.719,5396.89Zm22.791,6.92-1.21-1.04a0.951,0.951,0,0,0-1.28.03l-0.68.64a7.373,7.373,0,0,0-1.79-.59l-0.19-.94a0.959,0.959,0,0,0-1.02-.78l-1.59.13a0.99,0.99,0,0,0-.89.95l-0.03.96a6.734,6.734,0,0,0-1.71.92l-0.8-.55a0.959,0.959,0,0,0-1.27.19l-1.03,1.24a1,1,0,0,0,.03,1.31l0.71,0.76a7.06,7.06,0,0,0-.52,1.75l-1,.2a0.992,0.992,0,0,0-.78,1.05l0.14,1.61a0.981,0.981,0,0,0,.93.91l1.08,0.03a7.245,7.245,0,0,0,.77,1.49l-0.6.93a1,1,0,0,0,.18,1.3l1.21,1.04a0.954,0.954,0,0,0,1.29-.03l0.79-.76a6.715,6.715,0,0,0,1.64.54l0.22,1.11a0.967,0.967,0,0,0,1.02.79l1.59-.14a0.982,0.982,0,0,0,.89-0.95l0.03-1.08a6.988,6.988,0,0,0,1.63-.84l0.88,0.59a0.959,0.959,0,0,0,1.27-.19l1.03-1.24a0.978,0.978,0,0,0-.04-1.3l-0.7-.77a6.606,6.606,0,0,0,.55-1.75l0.97-.2a0.981,0.981,0,0,0,.77-1.04l-0.13-1.62a0.988,0.988,0,0,0-.93-0.9l-0.97-.03a7.015,7.015,0,0,0-.81-1.62l0.53-.81A0.987,0.987,0,0,0,1022.51,5403.81Zm-5.98,9.34a3.176,3.176,0,1,1,2.85-3.43A3.135,3.135,0,0,1,1016.53,5413.15Z" transform="translate(-989 -5386.5)"/>
</svg>
