<svg xmlns="http://www.w3.org/2000/svg" width="36" height="36" viewBox="0 0 36 36">
  <metadata><?xpacket begin="﻿" id="W5M0MpCehiHzreSzNTczkc9d"?>
<x:xmpmeta xmlns:x="adobe:ns:meta/" x:xmptk="Adobe XMP Core 5.6-c142 79.160924, 2017/07/13-01:06:39        ">
   <rdf:RDF xmlns:rdf="http://www.w3.org/1999/02/22-rdf-syntax-ns#">
      <rdf:Description rdf:about=""/>
   </rdf:RDF>
</x:xmpmeta>
                                                                                                    
                                                                                                    
                                                                                                    
                                                                                                    
                                                                                                    
                                                                                                    
                                                                                                    
                                                                                                    
                                                                                                    
                                                                                                    
                                                                                                    
                                                                                                    
                                                                                                    
                                                                                                    
                                                                                                    
                                                                                                    
                                                                                                    
                                                                                                    
                                                                                                    
                                                                                                    
                           
<?xpacket end="w"?></metadata>
<defs>
    <style>
      .cls-1 {
        fill: #fff;
        fill-rule: evenodd;
      }
    </style>
  </defs>
  <path id="PGD" class="cls-1" d="M1020.66,5475.19a1.23,1.23,0,0,0-.1-1.76l-11.62-10.11a1.441,1.441,0,0,0-1.88.02l-11.655,10.62a1.22,1.22,0,0,0-.056,1.76l0.292,0.31a1.279,1.279,0,0,0,1.749.13l0.871-.77v11.35a1.261,1.261,0,0,0,1.267,1.26h4.542a1.263,1.263,0,0,0,1.27-1.26v-7.94h5.79v7.94a1.191,1.191,0,0,0,1.19,1.26h4.81a1.263,1.263,0,0,0,1.27-1.26v-11.2s0.24,0.21.54,0.47a1.136,1.136,0,0,0,1.39-.46Z" transform="translate(-990 -5457.5)"/>
</svg>
