<svg xmlns="http://www.w3.org/2000/svg" xmlns:xlink="http://www.w3.org/1999/xlink" width="80" height="80" viewBox="0 0 80 80">
  <metadata><?xpacket begin="﻿" id="W5M0MpCehiHzreSzNTczkc9d"?>
<x:xmpmeta xmlns:x="adobe:ns:meta/" x:xmptk="Adobe XMP Core 5.6-c142 79.160924, 2017/07/13-01:06:39        ">
   <rdf:RDF xmlns:rdf="http://www.w3.org/1999/02/22-rdf-syntax-ns#">
      <rdf:Description rdf:about=""/>
   </rdf:RDF>
</x:xmpmeta>
                                                                                                    
                                                                                                    
                                                                                                    
                                                                                                    
                                                                                                    
                                                                                                    
                                                                                                    
                                                                                                    
                                                                                                    
                                                                                                    
                                                                                                    
                                                                                                    
                                                                                                    
                                                                                                    
                                                                                                    
                                                                                                    
                                                                                                    
                                                                                                    
                                                                                                    
                                                                                                    
                           
<?xpacket end="w"?></metadata>
<defs>
    <style>
      .cls-1 {
        fill-rule: evenodd;
        filter: url(#filter);
      }
    </style>
    <filter id="filter" x="1076.75" y="972.313" width="56.22" height="58.657" filterUnits="userSpaceOnUse">
      <feFlood result="flood" flood-color="#fff"/>
      <feComposite result="composite" operator="in" in2="SourceGraphic"/>
      <feBlend result="blend" in2="SourceGraphic"/>
    </filter>
  </defs>
  <path id="sukien_w" class="cls-1" d="M1129.89,1023.85v-29a5.6,5.6,0,1,0-6.9,0v2.057a15.9,15.9,0,0,1-3.01,9.343V973.517a1.212,1.212,0,0,0-1.21-1.217h-27.82a1.212,1.212,0,0,0-1.21,1.217v32.733a15.969,15.969,0,0,1-3.01-9.343V994.85a5.6,5.6,0,1,0-6.9,0v29a3.531,3.531,0,0,0-3.08,3.5v2.39a1.218,1.218,0,0,0,1.22,1.22h10.62a1.218,1.218,0,0,0,1.22-1.22v-2.39a3.531,3.531,0,0,0-3.08-3.5v-17.78a18.579,18.579,0,0,0,3.01,3.92v14.64a1.216,1.216,0,0,0,1.21,1.22h27.82a1.216,1.216,0,0,0,1.21-1.22v-14.64a18.253,18.253,0,0,0,3.01-3.92v17.78a3.531,3.531,0,0,0-3.08,3.5v2.39a1.218,1.218,0,0,0,1.22,1.22h10.62a1.218,1.218,0,0,0,1.22-1.22v-2.39A3.531,3.531,0,0,0,1129.89,1023.85Zm-46.61-36.57a3.164,3.164,0,1,1-3.16,3.164A3.168,3.168,0,0,1,1083.28,987.28Zm1.02,8.67v27.87h-2.04V995.95A5.64,5.64,0,0,0,1084.3,995.95Zm3.08,31.4v1.17h-8.2v-1.17a1.11,1.11,0,0,1,1.1-1.1h6A1.11,1.11,0,0,1,1087.38,1027.35Zm4.79-15.31a18.94,18.94,0,0,0,1.61,1.01v5.02h-1.61v-6.03Zm25.38,11.37h-25.38v-2.9h25.38v2.9h0Zm0-5.34h-21.34v-3.88a18.435,18.435,0,0,0,6.58,1.21h4.14a18.444,18.444,0,0,0,10.62-3.36v6.03h0Zm0-9.13a15.993,15.993,0,0,1-10.62,4.02h-4.14a15.918,15.918,0,0,1-6.58-1.41v-25.9a1.215,1.215,0,1,0-2.43,0v24.545a16.128,16.128,0,0,1-1.61-1.25V980.072h25.38v28.868h0Zm0-31.3h-25.38v-2.9h25.38v2.9h0Zm8.89,9.642a3.164,3.164,0,1,1-3.16,3.164A3.161,3.161,0,0,1,1126.44,987.28Zm1.02,8.67v27.87h-2.04V995.95A5.64,5.64,0,0,0,1127.46,995.95Zm3.08,32.57h-8.2v-1.17a1.11,1.11,0,0,1,1.1-1.1h6a1.11,1.11,0,0,1,1.1,1.1v1.17h0Z" transform="translate(-1064.86 -961.641)"/>
</svg>
