<svg xmlns="http://www.w3.org/2000/svg" xmlns:xlink="http://www.w3.org/1999/xlink" width="80" height="80" viewBox="0 0 80 80">
  <metadata><?xpacket begin="﻿" id="W5M0MpCehiHzreSzNTczkc9d"?>
<x:xmpmeta xmlns:x="adobe:ns:meta/" x:xmptk="Adobe XMP Core 5.6-c142 79.160924, 2017/07/13-01:06:39        ">
   <rdf:RDF xmlns:rdf="http://www.w3.org/1999/02/22-rdf-syntax-ns#">
      <rdf:Description rdf:about=""/>
   </rdf:RDF>
</x:xmpmeta>
                                                                                                    
                                                                                                    
                                                                                                    
                                                                                                    
                                                                                                    
                                                                                                    
                                                                                                    
                                                                                                    
                                                                                                    
                                                                                                    
                                                                                                    
                                                                                                    
                                                                                                    
                                                                                                    
                                                                                                    
                                                                                                    
                                                                                                    
                                                                                                    
                                                                                                    
                                                                                                    
                           
<?xpacket end="w"?></metadata>
<defs>
    <style>
      .cls-1 {
        fill-rule: evenodd;
        filter: url(#filter);
      }
    </style>
    <filter id="filter" x="1364" y="973" width="79" height="58" filterUnits="userSpaceOnUse">
      <feFlood result="flood" flood-color="#fff"/>
      <feComposite result="composite" operator="in" in2="SourceGraphic"/>
      <feBlend result="blend" in2="SourceGraphic"/>
    </filter>
  </defs>
  <path id="thethao_w" class="cls-1" d="M1439.05,973h-71.1a3.953,3.953,0,0,0-3.95,3.954v50.1a3.952,3.952,0,0,0,3.95,3.95h71.1a3.952,3.952,0,0,0,3.95-3.95v-50.1A3.953,3.953,0,0,0,1439.05,973Zm1.32,54.05a1.317,1.317,0,0,1-1.32,1.31h-71.1a1.317,1.317,0,0,1-1.32-1.31v-50.1a1.318,1.318,0,0,1,1.32-1.318h71.1a1.318,1.318,0,0,1,1.32,1.318v50.1h0Zm-3.95-48.777h-65.84a1.316,1.316,0,0,0-1.31,1.318v44.819a1.317,1.317,0,0,0,1.31,1.32h65.84a1.317,1.317,0,0,0,1.31-1.32V979.591A1.316,1.316,0,0,0,1436.42,978.273Zm-64.52,13.181h5.27a1.316,1.316,0,0,1,1.31,1.319v18.457a1.323,1.323,0,0,1-1.31,1.32h-5.27v-21.1Zm30.28,31.636H1371.9v-7.91h5.27a3.952,3.952,0,0,0,3.95-3.95v-1.44a7.9,7.9,0,0,0,0-15.581v-1.436a3.954,3.954,0,0,0-3.95-3.955h-5.27v-7.909h30.28v10.636a10.536,10.536,0,0,0,0,20.905v10.64Zm-21.06-16V996.914A5.252,5.252,0,0,1,1381.12,1007.09Zm22.38-1.14a1.319,1.319,0,0,0-1.32,1.32v2.52a7.9,7.9,0,0,1,0-15.581v2.518a1.32,1.32,0,0,0,2.64,0v-2.518a7.9,7.9,0,0,1,0,15.581v-2.52A1.319,1.319,0,0,0,1403.5,1005.95Zm31.6,6.6h-5.27a1.317,1.317,0,0,1-1.31-1.32V992.773a1.316,1.316,0,0,1,1.31-1.319h5.27v21.1Zm0-23.732h-5.27a3.954,3.954,0,0,0-3.95,3.955v1.436a7.9,7.9,0,0,0,0,15.581v1.44a3.952,3.952,0,0,0,3.95,3.95h5.27v7.91h-30.28v-10.64a10.536,10.536,0,0,0,0-20.905V980.909h30.28v7.909Zm-9.22,8.1v10.176A5.252,5.252,0,0,1,1425.88,996.914Zm-21.45,4.146a1.908,1.908,0,0,0-.21-0.15,0.477,0.477,0,0,0-.22-0.12,0.732,0.732,0,0,0-.25-0.08,1.314,1.314,0,0,0-1.19.35,1.534,1.534,0,0,0-.27.44,1.243,1.243,0,0,0,0,1h0a1.566,1.566,0,0,0,.28.44,1.343,1.343,0,0,0,.93.38,1.068,1.068,0,0,0,.25-0.03,0.732,0.732,0,0,0,.25-0.08,0.477,0.477,0,0,0,.22-0.12c0.08-.05.15-0.1,0.22-0.15a1.794,1.794,0,0,0,.27-0.44,1.243,1.243,0,0,0,0-1A1.566,1.566,0,0,0,1404.43,1001.06Z" transform="translate(-1363.5 -962)"/>
</svg>
