<svg xmlns="http://www.w3.org/2000/svg" width="80" height="80" viewBox="0 0 80 80">
  <metadata><?xpacket begin="﻿" id="W5M0MpCehiHzreSzNTczkc9d"?>
<x:xmpmeta xmlns:x="adobe:ns:meta/" x:xmptk="Adobe XMP Core 5.6-c142 79.160924, 2017/07/13-01:06:39        ">
   <rdf:RDF xmlns:rdf="http://www.w3.org/1999/02/22-rdf-syntax-ns#">
      <rdf:Description rdf:about=""/>
   </rdf:RDF>
</x:xmpmeta>
                                                                                                    
                                                                                                    
                                                                                                    
                                                                                                    
                                                                                                    
                                                                                                    
                                                                                                    
                                                                                                    
                                                                                                    
                                                                                                    
                                                                                                    
                                                                                                    
                                                                                                    
                                                                                                    
                                                                                                    
                                                                                                    
                                                                                                    
                                                                                                    
                                                                                                    
                                                                                                    
                           
<?xpacket end="w"?></metadata>
<defs>
    <style>
      .cls-1 {
        fill: #fff;
        fill-rule: evenodd;
      }
    </style>
  </defs>
  <path id="truyenhinh_w" class="cls-1" d="M542.016,973H483.984A3.962,3.962,0,0,0,480,976.93v39.52a3.96,3.96,0,0,0,3.984,3.93h19.885v2.86a4.8,4.8,0,0,1-4.82,4.76h-4.382a1.5,1.5,0,1,0,0,3h36.666a1.5,1.5,0,1,0,0-3H526.95a4.8,4.8,0,0,1-4.82-4.76v-2.86h19.885a3.961,3.961,0,0,0,3.985-3.93V976.93A3.962,3.962,0,0,0,542.016,973Zm-36.761,55a7.68,7.68,0,0,0,1.658-4.76v-2.86h12.175v2.86a7.679,7.679,0,0,0,1.657,4.76h-15.49Zm37.7-11.55a0.932,0.932,0,0,1-.941.93H483.984a0.932,0.932,0,0,1-.941-0.93v-7.88h59.914v7.88Zm0-10.89H483.043V976.93a0.935,0.935,0,0,1,.941-0.928h58.032a0.935,0.935,0,0,1,.941.928v28.63h0ZM513,1011.35a1.62,1.62,0,1,1-1.642,1.62A1.634,1.634,0,0,1,513,1011.35Zm2.609-28.01a1.537,1.537,0,0,0-2.152,0L502.7,993.947a1.487,1.487,0,0,0,0,2.123,1.538,1.538,0,0,0,2.152,0l10.753-10.607A1.487,1.487,0,0,0,515.609,983.34Zm6.373,6.147a1.537,1.537,0,0,0-2.152,0l-4.283,4.225a1.487,1.487,0,0,0,0,2.123,1.537,1.537,0,0,0,2.151,0l4.284-4.226A1.486,1.486,0,0,0,521.982,989.487Z" transform="translate(-473 -962)"/>
</svg>
