<svg xmlns="http://www.w3.org/2000/svg" width="24" height="24" viewBox="0 0 24 24">
  <metadata><?xpacket begin="﻿" id="W5M0MpCehiHzreSzNTczkc9d"?>
<x:xmpmeta xmlns:x="adobe:ns:meta/" x:xmptk="Adobe XMP Core 5.6-c142 79.160924, 2017/07/13-01:06:39        ">
   <rdf:RDF xmlns:rdf="http://www.w3.org/1999/02/22-rdf-syntax-ns#">
      <rdf:Description rdf:about=""/>
   </rdf:RDF>
</x:xmpmeta>
                                                                                                    
                                                                                                    
                                                                                                    
                                                                                                    
                                                                                                    
                                                                                                    
                                                                                                    
                                                                                                    
                                                                                                    
                                                                                                    
                                                                                                    
                                                                                                    
                                                                                                    
                                                                                                    
                                                                                                    
                                                                                                    
                                                                                                    
                                                                                                    
                                                                                                    
                                                                                                    
                           
<?xpacket end="w"?></metadata>
<defs>
    <style>
      .cls-1 {
        fill: #fff;
        fill-rule: evenodd;
      }
    </style>
  </defs>
  <path id="ttsd" class="cls-1" d="M1397.52,187.066h-9.39a0.367,0.367,0,1,0,0,.734h9.39A0.367,0.367,0,1,0,1397.52,187.066Zm-9.39-2.2h3.76a0.367,0.367,0,1,0,0-.734h-3.76A0.367,0.367,0,1,0,1388.13,184.867Zm9.39,5.133h-9.39a0.367,0.367,0,1,0,0,.733h9.39A0.367,0.367,0,1,0,1397.52,190Zm-3,2.933h-6.39a0.367,0.367,0,1,0,0,.734h6.39A0.367,0.367,0,1,0,1394.52,192.933Zm-1.13,3.667a0.367,0.367,0,1,0,0-.733h-5.26a0.367,0.367,0,1,0,0,.733h5.26Zm-8.64-16.867h10.89v5.134h5.26v6.6h0.75v-7.119L1396.18,179H1384v22h10.89v-0.733h-10.14V179.733Zm11.65,0.519,3.97,3.881h-3.97v-3.881Zm9.27,12.374-1.07-1.045a1.175,1.175,0,0,0-1.59,0l-5.78,5.643-0.79,2.853-0.2.19a0.351,0.351,0,0,0,0,.515v0.007h0a0.4,0.4,0,0,0,.27.1,0.369,0.369,0,0,0,.26-0.107l0.2-.19,2.92-.778,5.78-5.643A1.073,1.073,0,0,0,1405.67,192.626Zm-7.57,4.789,3.85-3.756,1.59,1.556-3.85,3.756Zm-0.34.705,1.21,1.181-1.66.443Zm7.38-4.465-1.07,1.041-1.59-1.555,1.06-1.042a0.4,0.4,0,0,1,.53,0l1.07,1.046A0.351,0.351,0,0,1,1405.14,193.655Z" transform="translate(-1383 -178)"/>
</svg>
