<svg xmlns="http://www.w3.org/2000/svg" xmlns:xlink="http://www.w3.org/1999/xlink" width="80" height="80" viewBox="0 0 80 80">
  <metadata><?xpacket begin="﻿" id="W5M0MpCehiHzreSzNTczkc9d"?>
<x:xmpmeta xmlns:x="adobe:ns:meta/" x:xmptk="Adobe XMP Core 5.6-c142 79.160924, 2017/07/13-01:06:39        ">
   <rdf:RDF xmlns:rdf="http://www.w3.org/1999/02/22-rdf-syntax-ns#">
      <rdf:Description rdf:about=""/>
   </rdf:RDF>
</x:xmpmeta>
                                                                                                    
                                                                                                    
                                                                                                    
                                                                                                    
                                                                                                    
                                                                                                    
                                                                                                    
                                                                                                    
                                                                                                    
                                                                                                    
                                                                                                    
                                                                                                    
                                                                                                    
                                                                                                    
                                                                                                    
                                                                                                    
                                                                                                    
                                                                                                    
                                                                                                    
                                                                                                    
                           
<?xpacket end="w"?></metadata>
<defs>
    <style>
      .cls-1 {
        fill-rule: evenodd;
        filter: url(#filter);
      }
    </style>
    <filter id="filter" x="773" y="973" width="75" height="58" filterUnits="userSpaceOnUse">
      <feFlood result="flood" flood-color="#fff"/>
      <feComposite result="composite" operator="in" in2="SourceGraphic"/>
      <feBlend result="blend" in2="SourceGraphic"/>
    </filter>
  </defs>
  <path id="vod_w" class="cls-1" d="M810.537,1023.43h-0.012A1.256,1.256,0,1,0,810.537,1023.43Zm22.829-33.148a1.243,1.243,0,0,0,1.768,0,1.269,1.269,0,0,0,0-1.783l-2.5-2.522a1.243,1.243,0,0,0-1.768,0,1.268,1.268,0,0,0,0,1.784Zm0,7.565a1.241,1.241,0,0,0,1.768,0,1.269,1.269,0,0,0,0-1.783l-10-10.087a1.243,1.243,0,0,0-1.768,0,1.268,1.268,0,0,0,0,1.784ZM841.75,973h-62.5a6.612,6.612,0,0,0-6.25,6.3v45.386a6.618,6.618,0,0,0,6.25,6.31h62.5a6.618,6.618,0,0,0,6.25-6.31V979.3A6.613,6.613,0,0,0,841.75,973Zm3.75,51.69a4.145,4.145,0,0,1-3.75,3.79h-62.5a4.144,4.144,0,0,1-3.75-3.79V979.3a4.139,4.139,0,0,1,3.75-3.783h62.5a4.139,4.139,0,0,1,3.75,3.783v45.386h0Zm-3.75-46.647h-62.5A1.256,1.256,0,0,0,778,979.3v40.346a1.253,1.253,0,0,0,1.25,1.26h62.5a1.253,1.253,0,0,0,1.25-1.26V979.3A1.256,1.256,0,0,0,841.75,978.043Zm-1.25,40.347h-60V980.565h60v37.825h0Z" transform="translate(-770.5 -962)"/>
</svg>
