<svg id="youtube" xmlns="http://www.w3.org/2000/svg" width="31.18" height="31.18" viewBox="0 0 31.18 31.18">
  <metadata><?xpacket begin="﻿" id="W5M0MpCehiHzreSzNTczkc9d"?>
<x:xmpmeta xmlns:x="adobe:ns:meta/" x:xmptk="Adobe XMP Core 5.6-c142 79.160924, 2017/07/13-01:06:39        ">
   <rdf:RDF xmlns:rdf="http://www.w3.org/1999/02/22-rdf-syntax-ns#">
      <rdf:Description rdf:about=""/>
   </rdf:RDF>
</x:xmpmeta>
                                                                                                    
                                                                                                    
                                                                                                    
                                                                                                    
                                                                                                    
                                                                                                    
                                                                                                    
                                                                                                    
                                                                                                    
                                                                                                    
                                                                                                    
                                                                                                    
                                                                                                    
                                                                                                    
                                                                                                    
                                                                                                    
                                                                                                    
                                                                                                    
                                                                                                    
                                                                                                    
                           
<?xpacket end="w"?></metadata>
<defs>
    <style>
      .cls-1 {
        fill: #e2313e;
      }

      .cls-2 {
        fill: #fff;
        fill-rule: evenodd;
      }
    </style>
  </defs>
  <circle class="cls-1" cx="15.59" cy="15.59" r="15.59"/>
  <path id="Forma_1" data-name="Forma 1" class="cls-2" d="M1235.39,6606.42h-1.28l0.01-.75a0.6,0.6,0,0,1,.6-0.6h0.08a0.6,0.6,0,0,1,.61.6Zm-4.81-1.6a0.544,0.544,0,0,0-.59.48v3.63a0.545,0.545,0,0,0,.59.49,0.551,0.551,0,0,0,.59-0.49v-3.63A0.551,0.551,0,0,0,1230.58,6604.82Zm7.82-2.03v6.9a3.113,3.113,0,0,1-3.19,3.01h-13.12a3.113,3.113,0,0,1-3.19-3.01v-6.9a3.113,3.113,0,0,1,3.19-3.01h13.12A3.113,3.113,0,0,1,1238.4,6602.79Zm-15.43,7.65-0.01-7.27h1.63v-1.08h-4.33v1.06h1.35v7.29h1.36Zm4.87-6.19h-1.36v3.88a6.5,6.5,0,0,1,0,.95c-0.11.3-.6,0.62-0.8,0.03a8.879,8.879,0,0,1,0-.95l-0.01-3.91h-1.34v3.85c0,0.59-.01,1.03,0,1.23a1.3,1.3,0,0,0,.35,1,1.635,1.635,0,0,0,2.07-.7v0.81h1.09v-6.19h0Zm4.34,4.45v-3.23c-0.01-1.23-.93-1.97-2.18-0.98l0.01-2.4h-1.36v8.3l1.11-.02,0.1-.52C1231.29,6611.16,1232.18,6610.26,1232.18,6608.7Zm4.24-.43-1.02.01v0.7a0.555,0.555,0,0,1-.55.55h-0.2a0.557,0.557,0,0,1-.56-0.55v-1.49h2.33v-0.88a14.6,14.6,0,0,0-.07-1.65c-0.17-1.15-1.79-1.34-2.61-.74a1.471,1.471,0,0,0-.57.76,4.2,4.2,0,0,0-.17,1.37v1.92C1233,6611.48,1236.89,6611.02,1236.42,6608.27Zm-5.21-10.46a0.936,0.936,0,0,0,.32.41,0.976,0.976,0,0,0,.56.16,0.875,0.875,0,0,0,.52-0.17,1.266,1.266,0,0,0,.38-0.48l-0.03.53h1.51v-6.43h-1.19v5a0.493,0.493,0,0,1-.49.5,0.5,0.5,0,0,1-.5-0.5v-5h-1.24v4.34c0,0.55.01,0.92,0.03,1.1A1.644,1.644,0,0,0,1231.21,6597.81Zm-4.58-3.63a5.493,5.493,0,0,1,.15-1.45,1.6,1.6,0,0,1,.56-0.83,1.575,1.575,0,0,1,1.02-.32,1.815,1.815,0,0,1,.9.21,1.473,1.473,0,0,1,.58.52,2.038,2.038,0,0,1,.28.67,5.334,5.334,0,0,1,.08,1.06v1.62a7.929,7.929,0,0,1-.08,1.31,2.1,2.1,0,0,1-.29.79,1.4,1.4,0,0,1-.58.53,1.825,1.825,0,0,1-.82.17,2.5,2.5,0,0,1-.88-0.14,1.25,1.25,0,0,1-.56-0.45,2.124,2.124,0,0,1-.28-0.72,6.73,6.73,0,0,1-.08-1.27v-1.7h0Zm1.18,2.55a0.6,0.6,0,1,0,1.2,0v-3.42a0.6,0.6,0,1,0-1.2,0v3.42Zm-4.18,1.73h1.42v-4.93l1.69-4.22h-1.56l-0.9,3.14-0.9-3.15h-1.55l1.79,4.23Z" transform="translate(-1212.41 -6585.41)"/>
</svg>
